<svg width="256" height="256" viewBox="0 0 256 256" xmlns="http://www.w3.org/2000/svg" role="img" aria-labelledby="title desc">
  <title id="title">Git Automation Dashboard Icon</title>
  <desc id="desc">Stylised git branch nodes connected on a rounded square background.</desc>
  <defs>
    <linearGradient id="bg" x1="0%" y1="0%" x2="100%" y2="100%">
      <stop offset="0%" stop-color="#1f2937" />
      <stop offset="100%" stop-color="#111827" />
    </linearGradient>
    <linearGradient id="node" x1="0%" y1="0%" x2="100%" y2="100%">
      <stop offset="0%" stop-color="#60a5fa" />
      <stop offset="100%" stop-color="#2563eb" />
    </linearGradient>
    <linearGradient id="accent" x1="0%" y1="0%" x2="100%" y2="0%">
      <stop offset="0%" stop-color="#facc15" />
      <stop offset="100%" stop-color="#f97316" />
    </linearGradient>
    <filter id="shadow" x="-20%" y="-20%" width="140%" height="140%" color-interpolation-filters="sRGB">
      <feDropShadow dx="0" dy="8" stdDeviation="10" flood-opacity="0.3" />
    </filter>
  </defs>
  <rect x="18" y="18" width="220" height="220" rx="56" fill="url(#bg)" filter="url(#shadow)" />
  <path d="M88 78c0-18 14-32 32-32s32 14 32 32-14 32-32 32-32-14-32-32z" fill="url(#node)" />
  <path d="M72 180c0-18 14-32 32-32s32 14 32 32-14 32-32 32-32-14-32-32z" fill="url(#node)" />
  <path d="M144 196c0-15.464 12.536-28 28-28s28 12.536 28 28-12.536 28-28 28-28-12.536-28-28z" fill="url(#accent)" />
  <path d="M120 108v32c0 8.836-7.164 16-16 16H104" fill="none" stroke="#93c5fd" stroke-width="14" stroke-linecap="round" />
  <path d="M120 140h44c9.941 0 18 8.059 18 18" fill="none" stroke="#fde68a" stroke-width="14" stroke-linecap="round" />
  <circle cx="120" cy="108" r="10" fill="#bfdbfe" />
  <circle cx="120" cy="140" r="8" fill="#bfdbfe" />
</svg>
